<svg width="572" height="720" viewBox="0 0 572 720" fill="none" xmlns="http://www.w3.org/2000/svg">
<path d="M449.809 439.784C457.16 460.06 458.94 467.727 451.521 464.643L451.227 464.545C451.356 469.04 449.839 469.081 447.064 467.458C439.876 474.126 424.306 450.814 392.741 455.18C385.49 456.084 378.679 456.102 372.375 455.33C356.347 453.369 343.598 446.307 335.244 435.744C328.707 427.479 324.861 417.071 324.24 405.286C323.885 398.548 324.584 391.361 326.437 383.866C324.621 378.3 324.226 374.694 324.549 369.816C324.625 368.682 324.739 367.479 324.883 366.166L410.624 345.074C429.895 378.202 442.309 390.327 447.306 412.53C447.348 412.717 447.39 412.906 447.431 413.095L447.431 413.096C463.928 398.839 464.528 423.704 449.536 429.217C449.729 432.495 449.82 436.001 449.809 439.784Z" fill="#CD9A78"/>
<path d="M451.05 462.157C451.149 463.064 451.207 463.857 451.227 464.545M447.064 467.458C446.315 467.02 445.474 466.46 444.549 465.834M447.064 467.458C439.876 474.126 424.306 450.814 392.741 455.18C385.49 456.084 378.679 456.102 372.375 455.33C356.347 453.369 343.598 446.307 335.244 435.744C328.707 427.479 324.861 417.071 324.24 405.286C323.885 398.548 324.584 391.361 326.437 383.866C324.621 378.3 324.226 374.694 324.549 369.816C324.625 368.682 324.739 367.479 324.883 366.166L410.624 345.074C429.895 378.202 442.309 390.327 447.306 412.53M447.064 467.458C449.839 469.081 451.356 469.04 451.227 464.545M451.227 464.545L451.521 464.643C458.94 467.727 457.16 460.06 449.809 439.784C449.821 435.892 449.723 432.293 449.519 428.935M449.519 428.935L449.536 429.217C464.528 423.704 463.928 398.839 447.431 413.096L447.306 412.53M449.519 428.935C449.142 422.762 448.403 417.403 447.306 412.53" stroke="black" stroke-width="2" stroke-linecap="round"/>
<path d="M392.742 455.18C385.491 456.084 378.68 456.102 372.376 455.33C356.348 453.369 343.599 446.307 335.245 435.744C328.708 427.479 324.862 417.071 324.241 405.286C323.886 398.548 324.585 391.361 326.438 383.866C324.786 378.803 324.31 375.362 324.481 371.11C324.481 371.11 324.48 371.11 324.48 371.11C324.336 372.422 324.625 368.682 324.55 369.816C324.521 370.257 324.498 370.687 324.481 371.11C344.523 371.357 355.289 371.336 373.681 361.319C396.857 388.205 401.252 421.827 392.742 455.18Z" fill="#DDB9A1"/>
<path d="M382.658 381.52C374.724 384.702 372.399 384.701 375.513 378.634C362.276 377.262 377.28 367.044 397.63 367.416C401.673 374.951 397.63 387.022 391.277 391.698C390.399 390.246 390.001 388.387 390.086 385.897C384.732 387.454 381.765 388.287 382.658 381.52Z" fill="#8D624F"/>
<path d="M330.238 459.629C328.908 448.623 330.011 443.54 335.651 436.632C329.115 428.367 325.269 417.959 324.648 406.174C313.454 399.648 307.444 395.233 298.703 381.862C286.875 375.591 283.557 372.383 292.485 368.039C286.737 356.702 304.954 370.528 324.957 370.704C324.633 375.582 325.029 379.188 326.845 384.754C324.992 392.249 324.293 399.437 324.648 406.174C325.269 417.959 329.115 428.367 335.651 436.632C344.005 447.195 356.755 454.258 372.783 456.219C365.675 463.309 359.654 466.011 344.42 467.985C335.857 475.785 333.287 475.555 331.934 468.578C322.17 474.801 318.819 476.026 330.238 459.629Z" fill="#D9D9D9"/>
<path d="M381.029 278.167C379.861 274.012 379.904 270.509 380.803 267.612M398.831 283.811C399.698 283.266 400.523 282.728 401.308 282.197M380.803 267.612L380.909 267.287C356.297 262.1 335.91 267.576 322.173 278.831M380.803 267.612C387.275 246.768 438.079 257.302 401.308 282.197M322.173 278.831L322.713 278.394C314.991 255.437 286.395 290.811 311.222 291.073L311.607 290.484M322.173 278.831C318.022 282.232 314.477 286.162 311.607 290.484M451.458 463.045C451.538 463.787 451.592 464.453 451.62 465.047M447.472 468.346C440.283 475.014 424.714 451.702 393.148 456.068C385.898 456.972 379.087 456.99 372.783 456.219M447.472 468.346C450.324 470.014 451.847 469.925 451.62 465.047M447.472 468.346C447.364 468.283 447.255 468.218 447.144 468.151M447.472 468.346L447.144 468.151M444.956 466.723C445.749 467.259 446.48 467.746 447.144 468.151M335.651 436.632C330.011 443.54 328.908 448.623 330.238 459.629C318.819 476.026 322.17 474.801 331.934 468.578C333.287 475.555 335.857 475.785 344.42 467.985C359.654 466.011 365.675 463.309 372.783 456.219M335.651 436.632C344.005 447.195 356.755 454.258 372.783 456.219M335.651 436.632C329.115 428.367 325.269 417.959 324.648 406.174M324.957 370.704C324.633 375.582 325.029 379.188 326.845 384.754C324.992 392.249 324.293 399.437 324.648 406.174M324.957 370.704C325.032 369.57 324.893 368.655 325.037 367.342C299.984 364.54 291.642 350.139 303.282 324.479C302.045 312.173 305.082 300.313 311.607 290.484M324.957 370.704C304.954 370.528 286.737 356.702 292.485 368.039C283.557 372.383 286.875 375.591 298.703 381.862C307.444 395.233 313.454 399.648 324.648 406.174M407.721 368.371C382.783 363.392 360.08 376.911 375.449 378.504C372.336 384.571 374.661 384.572 382.594 381.39C381.701 388.157 384.668 387.324 390.023 385.767C389.76 393.462 394.102 395.128 403.026 397.405M401.308 282.197L402.243 281.544C420.74 310.013 425.823 324.925 413.89 342.346C413.044 343.58 412.049 344.697 411.031 345.962C436.834 390.317 450.342 397.021 450.217 440.672C457.568 460.948 459.053 468.517 451.634 465.433L451.62 465.047" stroke="black" stroke-width="2" stroke-linecap="round"/>
<path d="M325.037 367.342C299.984 364.54 291.642 350.139 303.282 324.479C302.069 312.417 304.963 300.785 311.222 291.073C286.395 290.811 314.991 255.437 322.713 278.394L322.709 278.397C336.437 267.436 356.615 262.167 380.909 267.287L380.909 267.287C387.744 247.057 437.014 257.25 402.247 281.55C420.741 310.015 425.822 324.926 413.89 342.346C413.044 343.58 412.049 344.697 411.031 345.962L325.037 367.342Z" fill="#CD9A78"/>
<path d="M381.029 278.167C379.861 274.012 379.904 270.509 380.803 267.612M398.831 283.811C399.698 283.266 400.523 282.728 401.308 282.197M380.803 267.612L380.909 267.287C356.297 262.1 335.91 267.576 322.173 278.83M380.803 267.612C387.275 246.768 438.079 257.302 401.308 282.197M322.173 278.83L322.713 278.394C314.991 255.437 286.395 290.811 311.222 291.073L311.607 290.484M322.173 278.83C318.021 282.232 314.477 286.162 311.607 290.484M401.308 282.197L402.243 281.544C420.74 310.013 425.823 324.925 413.89 342.346C413.044 343.58 412.049 344.697 411.031 345.962L325.037 367.342C299.984 364.54 291.642 350.139 303.282 324.479C302.045 312.173 305.082 300.313 311.607 290.484" stroke="black" stroke-width="2" stroke-linecap="round"/>
<path d="M311.221 291.073C286.394 290.811 314.99 255.437 322.712 278.394L322.708 278.397L322.172 278.83C317.833 282.386 314.157 286.518 311.221 291.073Z" fill="#8D624F"/>
<path d="M303.281 324.479C301.5 306.76 308.58 289.966 322.172 278.83M311.221 291.073C286.394 290.811 314.99 255.437 322.712 278.394L322.172 278.83M322.172 278.83C327.209 274.704 333.14 271.354 339.845 269.022M344.844 269.806L341.055 265.099M348.265 268.591L346.948 261.415" stroke="black" stroke-width="2" stroke-linecap="round"/>
<path d="M339.36 338.969C334.002 341.891 330.839 342.639 324.745 341.679C326.919 356.324 325.896 363.166 328.331 376.244C337.376 380.115 342.336 378.863 351.082 373.608C348.494 358.912 345.457 351.604 339.36 338.969Z" fill="#743327" stroke="black" stroke-width="2" stroke-linecap="round"/>
<path d="M328.331 376.244C337.377 380.115 342.336 378.863 351.082 373.608C349.78 366.215 348.365 360.691 346.503 355.419C333.576 356.122 329.615 359.631 327.415 370.5C327.653 372.297 327.949 374.194 328.331 376.244Z" fill="#ED674E" stroke="black" stroke-width="2" stroke-linecap="round"/>
<path d="M381.027 278.167C379.859 274.012 379.902 270.509 380.801 267.612C380.835 267.503 380.87 267.394 380.907 267.287C387.95 246.44 440.054 257.899 398.829 283.81C390.864 286.113 384.601 283.681 381.027 278.167Z" fill="#8D624F"/>
<path d="M380.907 267.287L380.801 267.612M380.801 267.612C379.902 270.509 379.859 274.012 381.027 278.167C384.601 283.681 390.864 286.113 398.829 283.81C440.267 257.766 387.411 246.323 380.801 267.612Z" stroke="black" stroke-width="2" stroke-linecap="round"/>
<path d="M371.537 320.315C371.732 320.709 371.701 321.379 371.048 322.257C370.416 323.107 369.314 323.97 367.869 324.586C366.424 325.203 365 325.417 363.893 325.31C362.748 325.199 362.179 324.785 361.983 324.391C361.787 323.997 361.818 323.327 362.472 322.449C363.103 321.599 364.206 320.736 365.651 320.119C367.096 319.503 368.52 319.288 369.627 319.396C370.772 319.507 371.341 319.921 371.537 320.315Z" fill="#C6674F" stroke="#C6674F" stroke-width="2"/>
<path d="M312.009 325.762C311.997 326.146 311.701 326.67 310.823 327.126C309.971 327.568 308.738 327.841 307.333 327.777C305.928 327.712 304.715 327.327 303.893 326.808C303.045 326.273 302.782 325.724 302.794 325.34C302.806 324.956 303.102 324.433 303.981 323.977C304.833 323.534 306.066 323.261 307.471 323.326C308.876 323.39 310.089 323.775 310.911 324.294C311.759 324.83 312.021 325.378 312.009 325.762Z" fill="#C6674F" stroke="#C6674F" stroke-width="2"/>
<path d="M345.183 316.852C364.459 331.571 370.111 319.904 366.011 305.459L345.183 316.852Z" fill="white" stroke="black" stroke-width="2" stroke-linecap="round"/>
<path d="M320.526 318.315C310.16 328.955 305.78 321.867 308 310.29L320.526 318.315Z" fill="white" stroke="black" stroke-width="2" stroke-linecap="round"/>
<path d="M339.188 346.452C339.245 352.385 333.045 354.871 328.18 349.177C330.708 347.222 330.961 344.117 332.637 341.872C334.937 345.335 335.688 346.388 339.188 346.452Z" fill="white" stroke="black" stroke-width="2" stroke-linecap="round"/>
<path d="M330.875 316.747C323.003 318.108 312.407 330.981 314.779 343.359C320.081 353.807 331.21 351.649 332.123 340.922C335.913 352.539 358.232 349.07 355.446 335.202C351.4 324.75 343.364 314.588 330.875 316.747Z" fill="#8E6350"/>
<path d="M320.98 323.305C316.532 328.49 313.371 336.012 314.779 343.359C320.081 353.807 331.21 351.649 332.123 340.922C335.913 352.539 358.232 349.07 355.446 335.202C354.7 333.276 353.819 331.36 352.799 329.528" stroke="black" stroke-width="2"/>
<path d="M333.237 331.289C333.755 328.976 335.184 327.912 336.122 328.672C337.156 330.273 335.031 330.265 333.237 331.289Z" fill="black" stroke="black" stroke-width="2"/>
<path d="M328.242 331.926C327.895 330.085 326.505 329.465 325.51 330.173C324.711 330.975 326.519 332.126 328.242 331.926Z" fill="black" stroke="black" stroke-width="2"/>
<path d="M330.482 459.594C329.152 448.589 330.255 443.505 335.896 436.597C329.359 428.333 325.513 417.925 324.892 406.14C313.698 399.613 307.688 395.198 298.948 381.827C287.12 375.556 283.801 372.348 292.73 368.004C286.981 356.667 305.198 370.493 325.201 370.669C324.877 375.547 325.273 379.153 327.089 384.719C325.236 392.214 324.537 399.402 324.892 406.14C325.513 417.925 329.359 428.333 335.896 436.597C344.25 447.161 356.999 454.223 373.027 456.184C365.919 463.275 359.899 465.976 344.664 467.95C336.101 475.75 333.531 475.52 332.179 468.544C322.414 474.766 319.063 475.991 330.482 459.594Z" fill="#CD9A78"/>
<path d="M381.209 278.002C380.041 273.847 380.084 270.344 380.983 267.447M399.011 283.646C400.064 282.984 401.055 282.332 401.988 281.69M380.983 267.447L381.089 267.122C370.497 264.89 360.688 264.632 351.854 265.961C347.189 266.76 344.602 267.409 340.026 268.857C333.321 271.189 327.39 274.539 322.353 278.666M380.983 267.447C387.425 246.699 437.794 257.041 401.988 281.69M322.353 278.666L322.893 278.229C315.171 255.272 286.575 290.646 311.402 290.909L311.932 290.102M322.353 278.666C318.271 282.01 314.776 285.865 311.932 290.102M345.025 269.641L341.236 264.934M348.446 268.427L347.129 261.25M389.747 280.641C389.702 275.968 393.389 270.083 398.881 270.133M451.702 463.011C451.8 463.918 451.859 464.71 451.879 465.399M447.716 468.311C446.967 467.873 446.126 467.314 445.201 466.688M447.716 468.311C440.527 474.979 424.958 451.667 393.393 456.033C386.142 456.937 379.331 456.955 373.027 456.184M447.716 468.311C450.491 469.934 452.008 469.894 451.879 465.399M335.896 436.597C330.255 443.505 329.152 448.589 330.482 459.594C319.063 475.991 322.414 474.766 332.179 468.544C333.531 475.52 336.101 475.75 344.664 467.95C359.899 465.976 365.919 463.275 373.027 456.184M335.896 436.597C344.25 447.161 356.999 454.223 373.027 456.184M335.896 436.597C329.359 428.333 325.513 417.925 324.892 406.14M325.201 370.669C324.877 375.547 325.273 379.153 327.089 384.719C325.236 392.214 324.537 399.402 324.892 406.14M325.201 370.669C325.276 369.535 325.391 368.332 325.535 367.019L325.217 367.177C300.164 364.375 291.821 349.974 303.462 324.314C302.216 311.917 305.307 299.973 311.932 290.102M325.201 370.669C305.198 370.493 286.981 356.667 292.73 368.004C283.801 372.348 287.12 375.556 298.948 381.827C307.688 395.198 313.698 399.613 324.892 406.14M407.965 368.336C383.027 363.357 360.324 376.876 375.693 378.469C372.58 384.536 374.905 384.537 382.839 381.355C381.945 388.122 384.912 387.29 390.267 385.732C390.004 393.427 394.346 395.093 403.27 397.37M451.879 465.399L452.173 465.497C459.592 468.581 457.812 460.913 450.461 440.638C450.472 436.745 450.375 433.146 450.17 429.788M450.17 429.788L450.187 430.071C465.18 424.558 464.58 399.692 448.083 413.949L447.958 413.383M450.17 429.788C449.794 423.615 449.055 418.256 447.958 413.383M447.958 413.383C442.961 391.18 430.547 379.055 411.276 345.927C412.293 344.662 413.224 343.415 414.07 342.181C426.003 324.76 420.92 309.848 402.423 281.379L401.988 281.69" stroke="black" stroke-width="2" stroke-linecap="round"/>
<path d="M298.948 381.827C287.119 375.556 283.801 372.348 292.73 368.004C288.13 358.933 298.872 365.971 313.595 369.237C315.905 376.871 312.729 387.022 306.005 391.411C303.753 388.782 301.463 385.676 298.948 381.827Z" fill="#8E6350"/>
<path d="M325.035 367.342C299.983 364.54 291.64 350.138 303.28 324.479C301.499 306.76 308.58 289.966 322.172 278.83M402.241 281.544C420.738 310.013 425.822 324.925 413.888 342.345C413.043 343.58 412.112 344.827 411.094 346.092C436.896 390.447 450.405 397.151 450.28 440.802C457.63 461.078 459.41 468.745 451.992 465.661M381.027 278.167C379.859 274.012 379.902 270.509 380.802 267.612M398.83 283.81C440.267 257.766 387.411 246.323 380.802 267.612M311.22 291.073C286.393 290.811 314.989 255.437 322.711 278.394L322.172 278.83M380.802 267.612L380.907 267.287C370.315 265.054 360.506 264.797 351.672 266.125M322.172 278.83C327.208 274.704 333.139 271.354 339.844 269.022M344.844 269.806L341.054 265.099M348.264 268.591L346.947 261.414M389.565 280.805C389.52 276.132 393.207 270.247 398.7 270.297M451.52 463.175C452.261 470.007 450.734 470.348 447.534 468.476M447.534 468.476C446.785 468.038 445.944 467.478 445.019 466.852M447.534 468.476C440.346 475.144 424.776 451.832 393.211 456.198C385.96 457.102 379.149 457.12 372.845 456.348M335.714 436.762C330.074 443.67 328.97 448.753 330.301 459.759C318.882 476.156 322.232 474.931 331.997 468.708C333.349 475.684 335.919 475.914 344.482 468.115C359.717 466.141 365.738 463.439 372.845 456.348M335.714 436.762C344.068 447.325 356.817 454.387 372.845 456.348M335.714 436.762C329.177 428.497 325.331 418.089 324.71 406.304M325.02 370.834C324.696 375.712 325.091 379.318 326.908 384.884C325.054 392.379 324.355 399.566 324.71 406.304M325.02 370.834C325.095 369.7 325.209 368.497 325.353 367.184M325.02 370.834C305.017 370.658 286.799 356.831 292.548 368.169C283.619 372.513 286.938 375.72 298.766 381.992C307.507 395.363 313.517 399.778 324.71 406.304M407.784 368.501C382.845 363.522 360.143 377.041 375.512 378.634C372.398 384.701 374.723 384.702 382.657 381.52C381.764 388.286 384.731 387.454 390.085 385.897C389.823 393.591 394.164 395.257 403.088 397.534M447.901 414.114C464.399 399.857 464.999 424.722 450.006 430.235" stroke="black" stroke-width="2" stroke-linecap="round"/>
<path d="M413.361 239.278C411.032 236.746 408.788 235.945 404.47 235.228C400.646 244.074 395.162 247.093 388.212 245.053C378.358 241.62 375.009 238.683 374.266 231C374.155 228.32 374.273 226.092 374.639 224.296C375.69 219.143 378.784 217.545 384.368 219.024C401.55 223.575 406.941 226.933 404.47 235.228C408.788 235.945 411.032 236.746 413.361 239.278C417.704 234.311 421.394 233.594 429.75 235.158C435.024 236.144 439.442 238.417 443.463 241.758C446.03 243.891 446.656 245.391 446.019 248.485C445.916 248.984 445.78 249.525 445.615 250.117C444.593 253.767 442.862 257.14 439.951 258.759C429.04 264.83 415.897 257.71 412.895 249.616C411.77 246.091 411.949 243.815 413.361 239.278Z" fill="white" fill-opacity="0.17"/>
<path d="M404.47 235.228C408.788 235.945 411.032 236.746 413.361 239.278M404.47 235.228C400.646 244.074 395.162 247.093 388.212 245.053C378.358 241.62 375.009 238.683 374.266 231C374.155 228.32 374.273 226.092 374.639 224.296M404.47 235.228C406.941 226.933 401.55 223.575 384.368 219.024C378.784 217.545 375.69 219.143 374.639 224.296M413.361 239.278C417.704 234.311 421.394 233.594 429.75 235.158C435.024 236.144 439.442 238.417 443.463 241.758C446.03 243.891 446.656 245.391 446.019 248.485M413.361 239.278C411.949 243.815 411.77 246.091 412.895 249.616C415.897 257.71 429.04 264.83 439.951 258.759C442.862 257.14 444.593 253.767 445.615 250.117C445.78 249.525 445.916 248.984 446.019 248.485M469.511 257.492C469.511 257.492 469.555 254.908 467.483 253.77L446.019 248.485M374.639 224.296L396.104 229.581C398.176 230.719 398.131 233.303 398.131 233.303" stroke="black" stroke-width="2"/>
<path d="M360.336 277.71C367.643 275.749 371.017 276.813 374.91 284.753" stroke="#E73427" stroke-width="4" stroke-linecap="round"/>
<path d="M384.34 264.321C378.557 269.245 377.587 272.657 382.258 280.475" stroke="#E73427" stroke-width="4" stroke-linecap="round"/>
<path d="M361.281 268.952C368.85 270.347 372.119 268.974 375.123 260.515" stroke="#E73427" stroke-width="4" stroke-linecap="round"/>
<path d="M72.7285 277.747L74.5817 275.032L100.353 312.32L100.247 319.036L100.378 321.51L100.01 323.278L99.7654 324.457L55.4297 302.059L58.137 301.439L55.7971 300.291L61.3745 298.266L58.5156 296.514L69.9807 297.177L61.7239 290.38L65.929 288.755L64.32 287.192L68.9997 286.386L66.916 284.005L70.4056 282.722L69.3896 281.407L73.2199 278.484L72.7285 277.747Z" fill="#D9D9D9"/>
<path d="M100.247 319.036L100.353 312.32L74.5817 275.032L72.7285 277.747L73.2199 278.484M100.247 319.036L73.2199 278.484M100.247 319.036L100.378 321.51M73.2199 278.484L69.3896 281.407L70.4056 282.722M100.378 321.51L70.4056 282.722M100.378 321.51L100.01 323.278M70.4056 282.722L66.916 284.005L68.9997 286.386M100.01 323.278L68.9997 286.386M100.01 323.278L65.929 288.755M100.01 323.278L69.9807 297.177M100.01 323.278L61.3745 298.266M100.01 323.278L58.137 301.439M100.01 323.278L99.7654 324.457L55.4297 302.059L58.137 301.439M68.9997 286.386L64.32 287.192L65.929 288.755M65.929 288.755L61.7239 290.38L69.9807 297.177M69.9807 297.177L58.5156 296.514L61.3745 298.266M61.3745 298.266L55.7971 300.291L58.137 301.439" stroke="black"/>
<path d="M74.7032 274.443L135.505 285.844L163.383 322.302C164.483 326.804 163.762 328.923 161.301 332.321L97.9114 327.171L54.8166 305.006L61.2663 304.988L99.5266 324.412C100.617 322.16 100.941 319.934 100.238 315.973L93.4288 304.898L74.7032 274.443Z" fill="#A3C6FF"/>
<path d="M163.383 322.302L135.505 285.844L74.7032 274.443L93.4288 304.898L100.238 315.973M163.383 322.302L100.238 315.973M163.383 322.302C164.483 326.804 163.762 328.923 161.301 332.321L97.9114 327.171M100.238 315.973C100.941 319.934 100.617 322.16 99.5266 324.412M97.9114 327.171L54.8166 305.006L61.2663 304.988L99.5266 324.412M97.9114 327.171C98.5566 326.177 99.1001 325.293 99.5266 324.412" stroke="black" stroke-width="2"/>
<path d="M239.708 501.079H283.112L308.812 611.759L235.139 654.078L193.448 650.823L166.605 537.43L239.708 501.079Z" fill="#202020"/>
<path d="M166.605 537.43H207.154M166.605 537.43L239.708 501.079H283.112M166.605 537.43L193.448 650.823L235.139 654.078M207.154 537.43L283.112 501.079M207.154 537.43L235.139 654.078M283.112 501.079L308.812 611.759L235.139 654.078" stroke="black" stroke-width="2"/>
<path d="M283.112 501.079L207.154 537.43L235.139 654.078L193.448 650.823L166.605 537.43L239.708 501.079H283.112Z" fill="#111111"/>
<path d="M166.605 537.43H207.154M166.605 537.43L239.708 501.079H283.112L207.154 537.43M166.605 537.43L193.448 650.823L235.139 654.078L207.154 537.43" stroke="black" stroke-width="2"/>
<path d="M205.175 542.855H170.033L193.296 643.063L229.428 645.94L205.175 542.855Z" fill="#A6A6A6" stroke="black" stroke-width="2"/>
<path d="M201.999 546.687H183.933L189.419 569.457H207.324L201.999 546.687Z" fill="#CFCFCF" stroke="black"/>
<path d="M207.774 570.829H189.708L193.462 585.643H211.367L207.774 570.829Z" fill="#CFCFCF" stroke="black"/>
<path d="M212.521 589.483H184.509L186.82 598.262H214.67L212.521 589.483Z" fill="#CFCFCF" stroke="black"/>
<path d="M187.976 593.873H198.949M202.126 593.873H209.345" stroke="black"/>
<path d="M215.41 601.554H187.398L189.708 610.333H217.558L215.41 601.554Z" fill="#CFCFCF" stroke="black"/>
<path d="M218.297 613.625H190.286L192.596 622.404H220.446L218.297 613.625Z" fill="#CFCFCF" stroke="black"/>
<path d="M221.185 625.696H193.173L195.484 634.475H223.334L221.185 625.696Z" fill="#CFCFCF" stroke="black"/>
<path d="M182.072 547.235H173.536L182.65 585.643H191.313L182.072 547.235Z" fill="#CFCFCF" stroke="black"/>
<path d="M240.278 498.366L239.707 500.536H283.112L291.678 495.111H247.131L240.278 498.366Z" fill="#686868" stroke="black" stroke-width="2"/>
<path d="M317.379 606.334L309.172 611.488L283.684 500.222L291.679 495.111L317.379 606.334Z" fill="#9A9A9A" stroke="black" stroke-width="2"/>
<path d="M201.846 558.504C202.326 561.014 202.054 562.893 201.302 564.198C200.556 565.492 199.3 566.29 197.656 566.574C196.102 566.842 194.464 566.173 193.062 564.758C191.662 563.345 190.541 561.225 190.063 558.726C189.581 556.209 189.775 554.138 190.47 552.645C191.148 551.187 192.313 550.256 193.88 549.968C196.366 550.158 198.09 551.051 199.32 552.467C200.576 553.915 201.359 555.958 201.846 558.504Z" fill="#202020" stroke="black"/>
<path d="M212.811 605.944H201.837M198.661 605.944H191.441" stroke="black"/>
<path d="M193.751 618.015H204.725M207.901 618.015H215.121" stroke="black"/>
<path d="M197.793 630.086H208.767M211.944 630.086H219.163" stroke="black"/>
<path d="M403.316 403.122L406.871 388.767V384.123L283.766 394.256L269.989 401.433V406.5L403.316 403.122Z" fill="#151712" stroke="black" stroke-width="2"/>
<path d="M283.766 389.612L269.989 401.855L403.316 398.478L406.871 384.123L283.766 389.612Z" fill="#413B3D" stroke="black" stroke-width="2"/>
<path d="M156.709 415.215L54.8765 393.629L310.3 415.215L423.494 444.797L156.709 415.215Z" fill="#333333" stroke="black" stroke-width="2"/>
<path d="M280.266 604.086L267.222 601.288L296.551 415.404L310.564 416.203L317.297 417.402L287.841 601.288L280.266 604.086Z" fill="#5E5E5E"/>
<path d="M120.364 555.717L144.77 412.105L156.973 412.904L169.597 415.702L144.77 558.515H132.146L120.364 555.717Z" fill="#5E5E5E"/>
<path d="M378.312 596.891L365.267 594.093L389.253 433.393L403.265 434.192L409.998 435.391L385.886 594.093L378.312 596.891Z" fill="#5E5E5E"/>
<path d="M53.1638 566.51L40.1191 563.712L66.9235 387.821L80.936 388.62L87.6687 389.82L60.7382 563.712L53.1638 566.51Z" fill="#5E5E5E"/>
<path d="M296.678 414.604L296.551 415.404M280.266 604.086L267.222 601.288L296.551 415.404M280.266 604.086L310.564 416.203M280.266 604.086L287.841 601.288L317.297 417.402L310.564 416.203M310.564 416.203L296.551 415.404M132.146 558.515L120.364 555.717L144.77 412.105L156.973 412.904M132.146 558.515H144.77L169.597 415.702L156.973 412.904M132.146 558.515L156.973 412.904M389.379 432.593L389.253 433.393M378.312 596.891L365.267 594.093L389.253 433.393M378.312 596.891L403.265 434.192M378.312 596.891L385.886 594.093L409.998 435.391L403.265 434.192M403.265 434.192L389.253 433.393M67.0497 387.021L66.9235 387.821M53.1638 566.51L40.1191 563.712L66.9235 387.821M53.1638 566.51L80.936 388.62M53.1638 566.51L60.7382 563.712L87.6687 389.82L80.936 388.62M80.936 388.62L66.9235 387.821" stroke="black" stroke-width="2"/>
<path d="M56.9804 380.437L314.508 400.824L426.86 430.806L424.336 444.397L312.404 416.015L54.8765 393.229L56.9804 380.437Z" fill="#813218"/>
<path d="M312.404 416.015L314.508 400.824M312.404 416.015L54.8765 393.229L56.9804 380.437L314.508 400.824M312.404 416.015L424.336 444.397L426.86 430.806L314.508 400.824" stroke="black" stroke-width="2"/>
<path d="M223.723 296.303L187.652 305.089L205.225 352.536L242.221 345.067L223.723 296.303Z" fill="#1D1D1D" stroke="black" stroke-width="2"/>
<path d="M187.652 305.09L160.83 287.077L197.363 378.017L205.225 352.536L187.652 305.09Z" fill="#161618" stroke="black" stroke-width="2"/>
<path d="M289.853 361.322L242.221 345.068L205.225 352.536L197.364 378.017L289.853 361.322Z" fill="#2B2724" stroke="black" stroke-width="2"/>
<path d="M223.722 296.303L187.652 305.089L160.83 287.077L254.706 258.082L223.722 296.303Z" fill="#4B4843" stroke="black" stroke-width="2"/>
<path d="M254.707 258.082L223.723 296.303L242.221 345.067L289.853 361.322L295.402 360.004L254.707 258.082Z" fill="#393532" stroke="black" stroke-width="2"/>
<path d="M160.83 287.077L254.706 258.082L295.402 360.004L289.852 361.322L197.363 378.016L160.83 287.077Z" stroke="black" stroke-width="2"/>
<path d="M226.497 379.774L280.603 370.109L221.873 395.15L185.802 399.104C193.389 394.433 199.447 390.847 204.762 388.052C212.798 383.826 219.137 381.405 226.497 379.774Z" fill="#343331"/>
<path d="M280.603 370.109L226.497 379.774C219.137 381.405 212.798 383.826 204.762 388.052M280.603 370.109L221.873 395.15M280.603 370.109L226.497 385.046M221.873 395.15L185.802 399.104C193.389 394.433 199.447 390.847 204.762 388.052M221.873 395.15L226.497 385.046M226.497 385.046L204.762 388.052" stroke="black" stroke-width="2"/>
<path d="M185.802 399.104L221.873 395.15L226.497 385.046L204.762 388.052C199.447 390.847 193.389 394.433 185.802 399.104Z" fill="#252221" stroke="black" stroke-width="2"/>
<path d="M195.052 303.332L220.486 365.715L224.48 382.41H232.047L225.111 385.045L220.486 387.242L210.775 388.121L206.613 369.669L182.103 306.847L189.965 304.65L195.052 303.332Z" fill="#BCBABB"/>
<path d="M225.111 385.045L220.486 387.242M225.111 385.045L232.047 382.41H224.48M225.111 385.045L224.48 382.41M220.486 387.242L215.862 367.033L189.965 304.65M220.486 387.242L210.775 388.121L206.613 369.669L182.103 306.847L189.965 304.65M189.965 304.65L195.052 303.332L220.486 365.715L224.48 382.41" stroke="black" stroke-width="2"/>
<path d="M215.862 367.033L220.486 387.242L217.711 391.635L206.613 392.514L210.775 388.121L206.613 369.669L182.103 306.847L189.965 304.65L215.862 367.033Z" fill="#3A3633"/>
<path d="M220.486 387.242L215.862 367.033L189.965 304.65L182.103 306.847L206.613 369.669L210.775 388.121M220.486 387.242L210.775 388.121M220.486 387.242L217.711 391.635L206.613 392.514L210.775 388.121" stroke="black" stroke-width="2"/>
<path d="M202.913 305.968L195.772 304.171L220.486 364.837L222.336 355.611L202.913 305.968Z" fill="#101010" stroke="black" stroke-width="2"/>
<path d="M203.795 365.074C185.056 369.867 187.035 382.738 203.795 396.706C208.86 417.794 202.515 422.877 178.978 413.001C109.993 394.352 61.8499 403.391 36.0761 448.199C-49.3112 607.39 60.622 641.608 182.2 565.067" stroke="black" stroke-width="2"/>
<path d="M203.529 119.253L197 109.949V104.299L200.264 108.708L210.607 103.919L213.975 102.506L216.88 106.552L220.504 111.599L229.645 107.479L227.033 101.886L236.174 92.5821L236.922 88.996L242.05 96.3036V101.886L232.42 106.228L236.174 111.81V117.392L225.075 123.594L217.24 113.071L203.529 119.253Z" fill="#F66444"/>
<path d="M210.711 103.871L210.607 103.919M217.24 113.071L203.529 119.253L197 109.949V104.299L200.264 108.708L210.607 103.919M217.24 113.071L225.075 123.594M217.24 113.071L216.88 106.552M229.645 107.479L232.42 106.228M229.645 107.479L220.504 111.599M229.645 107.479L227.033 101.886L236.174 92.5821L236.922 88.996L242.05 96.3036V101.886L232.42 106.228M225.075 123.594L236.174 117.392V111.81L232.42 106.228M225.075 123.594V117.392L220.504 111.599M220.504 111.599L216.88 106.552M210.607 103.919L213.975 102.506L216.88 106.552" stroke="black" stroke-width="2"/>
<path d="M236.174 87L242.05 96.3037L229.645 101.896L236.174 111.81L225.075 118.012L217.24 107.489L203.529 113.671L197 104.367L210.711 98.2885L223.442 92.6442L236.174 87Z" fill="#AF2406"/>
<path d="M210.711 98.2885L197 104.367L203.529 113.671L217.24 107.489M210.711 98.2885L217.24 107.489M210.711 98.2885L223.442 92.6442M217.24 107.489L229.645 101.896M217.24 107.489L225.075 118.012L236.174 111.81L229.645 101.896M223.442 92.6442L236.174 87L242.05 96.3037L229.645 101.896M223.442 92.6442L229.645 101.896" stroke="black" stroke-width="2"/>
<path d="M273.263 189.48L285.885 163.719L314.751 179.27L295.257 202.419C285.885 205.506 273.263 195.89 273.263 189.48Z" fill="#FEFEF3" stroke="black" stroke-width="2"/>
<path d="M312.001 184.731V182.594C304.129 187.58 284.135 175.115 284.135 167.161L282.51 168.467L276.512 180.339C276.512 189.124 291.507 199.214 302.254 196.959L312.001 184.731Z" fill="#DC9464" stroke="black" stroke-width="2"/>
<path d="M274.65 192.958L288.114 165.699L313.27 180.145L311.251 182.496L311.959 184.859L302.43 196.547L299.184 196.547L294.488 202.015C284.673 202.679 279.667 200.411 274.65 192.958Z" fill="black" fill-opacity="0.33" stroke="black" stroke-width="2"/>
<path d="M285.698 160.79L285.687 160.805L285.676 160.82C285.341 161.289 285.22 161.985 285.509 162.981C285.797 163.977 286.468 165.159 287.521 166.454C289.622 169.039 293.108 171.907 297.497 174.407C301.885 176.908 306.267 178.523 309.778 179.135C311.537 179.442 313.021 179.487 314.153 179.302C315.287 179.116 315.943 178.724 316.278 178.256L316.299 178.226L316.323 178.198L319.16 174.778C314.257 169.678 310.079 166.144 305.391 163.395C300.705 160.648 295.463 158.659 288.394 156.702L285.698 160.79Z" fill="#584F4F" stroke="black" stroke-width="2"/>
<path d="M288.476 156.45C288.084 156.999 287.946 157.774 288.216 158.826C288.486 159.881 289.148 161.122 290.199 162.471C292.297 165.164 295.823 168.125 300.294 170.674C304.765 173.223 309.255 174.832 312.873 175.398C314.685 175.681 316.224 175.695 317.409 175.469C318.591 175.245 319.32 174.806 319.712 174.257C320.104 173.708 320.242 172.933 319.973 171.88C319.702 170.825 319.041 169.584 317.99 168.236C315.891 165.543 312.366 162.582 307.895 160.033C303.424 157.484 298.933 155.875 295.315 155.309C293.503 155.025 291.965 155.012 290.78 155.238C289.597 155.462 288.868 155.901 288.476 156.45Z" fill="#D9D9D9" stroke="black" stroke-width="2"/>
<path d="M292.198 156.735L292.19 156.751L292.18 156.767C291.954 157.138 291.879 157.696 292.142 158.514C292.405 159.333 292.978 160.307 293.87 161.373C295.649 163.5 298.555 165.829 302.179 167.815C305.804 169.802 309.381 171.025 312.209 171.423C313.627 171.622 314.802 171.607 315.68 171.413C316.557 171.22 317.028 170.878 317.253 170.506L317.272 170.476L317.292 170.447L319.379 167.502C315.27 163.348 311.796 160.496 307.956 158.327C304.117 156.159 299.863 154.647 294.157 153.227L292.198 156.735Z" fill="#584F4F" stroke="black" stroke-width="2"/>
<path d="M294.506 152.514C294.283 152.88 294.209 153.437 294.483 154.264C294.756 155.09 295.346 156.075 296.258 157.153C298.078 159.304 301.042 161.666 304.73 163.687C308.418 165.708 312.054 166.963 314.926 167.383C316.365 167.593 317.557 167.585 318.447 167.396C319.337 167.208 319.808 166.867 320.03 166.501C320.252 166.135 320.327 165.578 320.053 164.751C319.78 163.925 319.19 162.941 318.277 161.862C316.457 159.711 313.494 157.35 309.805 155.329C306.117 153.308 302.482 152.053 299.61 151.633C298.171 151.423 296.978 151.43 296.089 151.619C295.198 151.808 294.728 152.148 294.506 152.514Z" fill="#D9D9D9" stroke="black" stroke-width="2"/>
<path d="M299.881 155.46C299.825 155.552 299.758 155.766 299.904 156.206C300.049 156.646 300.375 157.201 300.91 157.833C301.976 159.093 303.731 160.496 305.935 161.703C308.139 162.911 310.296 163.652 311.977 163.897C312.821 164.021 313.49 164.011 313.963 163.911C314.438 163.81 314.599 163.648 314.655 163.556C314.711 163.464 314.777 163.25 314.632 162.81C314.486 162.37 314.16 161.815 313.625 161.183C312.56 159.923 310.805 158.52 308.601 157.313C306.397 156.105 304.24 155.364 302.559 155.119C301.715 154.995 301.046 155.005 300.572 155.105C300.098 155.206 299.937 155.368 299.881 155.46Z" fill="#6A645C" stroke="black" stroke-width="2"/>
<path d="M341.854 152.293C339.199 154.162 328.774 147.144 314 162.5C311.984 162.5 309.252 163.102 305.5 160C319.013 156.016 309.275 148.89 322.752 143.836C326.583 134.24 331.947 132.292 342.65 130.06C351.765 128.16 351.018 120.598 362.427 123.988C366.109 123.171 358.942 120.705 360.843 114.151C356.883 113.661 354.543 113.264 354.344 116.64C354.059 121.492 349.439 123.46 347.874 116.24C351.303 113.273 354.036 112.442 360.616 112.746C362.812 117.198 367.911 118.426 369.378 124.311C366.788 133.518 365.713 138.256 373.666 135.635C379.044 133.313 381.49 133.771 384.178 139.709C386.547 137.504 388.392 136.982 393.304 138.239L401.95 136.846L405.03 140.675C412.65 140.871 416.097 141.443 418.019 144.831C422.437 141.564 424.798 141.471 428.634 146.485C433.041 142.646 434.401 142.856 435.839 145.325C436.145 147.991 434.458 148.162 430.857 148.049C429.468 149.053 429.396 149.893 431.536 152.265C428.878 155.404 422.833 150.524 424.133 149.133C425.432 147.741 417.328 151.969 416.805 146.468C411.212 148.503 408.05 147.273 402.629 141.062C399.446 144.589 393.832 141.518 391.43 141.905C385.79 146.658 379.924 149.427 374.949 143.598C370.485 144.032 368.174 144.305 365.822 145.068C365.428 149.186 365.392 151.597 356.971 151.3C350.83 149.104 347.377 147.408 341.326 149.014L341.854 152.293Z" fill="#2D1513"/>
<path d="M342.706 130.048C342.688 130.052 342.669 130.056 342.65 130.06M342.65 130.06C331.947 132.292 326.583 134.24 322.752 143.836C309.275 148.89 319.013 156.016 305.5 160C309.252 163.102 311.984 162.5 314 162.5C328.774 147.144 339.199 154.162 341.854 152.293L341.326 149.014C347.377 147.408 350.83 149.104 356.971 151.3C365.392 151.597 365.428 149.186 365.822 145.068C368.174 144.305 370.485 144.032 374.949 143.598C379.924 149.427 385.79 146.658 391.43 141.905C393.832 141.518 399.446 144.589 402.629 141.062C408.05 147.273 411.212 148.503 416.805 146.468C417.328 151.969 425.432 147.741 424.133 149.133C422.833 150.524 428.878 155.404 431.536 152.265C429.396 149.893 429.468 149.053 430.857 148.049C434.458 148.162 436.145 147.991 435.839 145.325C434.401 142.856 433.041 142.646 428.634 146.485C424.798 141.471 422.437 141.564 418.019 144.831C416.097 141.443 412.65 140.871 405.03 140.675L401.95 136.846L393.304 138.239C388.392 136.982 386.547 137.504 384.178 139.709C381.49 133.771 379.044 133.313 373.666 135.635C365.713 138.256 366.788 133.518 369.378 124.311C367.911 118.426 362.812 117.198 360.616 112.746C354.036 112.442 351.303 113.273 347.874 116.24C349.439 123.46 354.059 121.492 354.344 116.64C354.543 113.264 356.883 113.661 360.843 114.151C358.942 120.705 366.109 123.171 362.427 123.988C351.018 120.598 351.765 128.16 342.65 130.06Z" stroke="black"/>
<path d="M194.039 605.67C33.4767 704.432 322.258 781.796 322.258 645.998" stroke="black" stroke-width="2"/>
<path d="M536.304 228.289L522.962 226.478L510.256 224.667L510.891 211.993L515.338 209.579L540.751 225.874L536.304 228.289Z" fill="#F98976"/>
<path d="M523.598 214.407L524.233 202.336L528.68 199.922L552.187 205.957L554.093 215.614L549.646 218.632L523.598 214.407Z" fill="#F98976"/>
<path d="M536.304 228.289L522.962 226.478L510.256 224.667L510.891 211.993L515.338 209.579L540.751 225.874L536.304 228.289Z" stroke="black" stroke-width="2"/>
<path d="M523.598 214.407L524.233 202.336L528.68 199.922L552.187 205.957L554.093 215.614L549.646 218.632L523.598 214.407Z" stroke="black" stroke-width="2"/>
<path d="M540.751 225.874L527.41 224.064L514.703 222.253L515.338 209.579L528.045 211.993L528.68 199.922L542.022 202.336L554.728 204.75L554.093 216.218L541.384 214.156L540.751 225.874Z" fill="#FDC2B8"/>
<path d="M527.41 224.064L540.751 225.874L542.022 202.336M527.41 224.064L528.045 211.993M527.41 224.064L514.703 222.253L515.338 209.579L528.045 211.993M542.022 202.336L528.68 199.922L528.045 211.993M542.022 202.336L554.728 204.75L554.093 216.218L528.045 211.993" stroke="black" stroke-width="2"/>
<path d="M387.272 603.814C405.975 592.466 414.699 588.41 425.043 588.164C401.336 628.627 424.24 630.917 422.231 645.041C396.387 645.723 374.816 658.02 334.232 667.944C276.369 664.891 294.853 653.057 268.333 640.078C261.465 637.309 257.915 635.326 252.662 630.154C258.478 619.716 263.028 617.561 272.753 618.702C284.004 614.884 281.593 605.723 287.62 597.707C305.999 598.739 316.986 600.233 340.661 608.395C349.2 610.156 354.083 610.113 363.163 607.632C372.779 604.815 382.852 605.723 387.272 603.814Z" fill="#143391" stroke="black" stroke-width="2"/>
<path d="M387.273 603.814C405.976 592.466 414.7 588.41 425.044 588.164C420.921 595.558 418.945 599.543 416.606 606.105C394.908 619.465 385.666 614.503 359.949 630.154C335.966 630.381 316.954 629.008 304.096 624.046L340.662 608.395C349.201 610.156 354.084 610.113 363.164 607.632C372.78 604.815 382.853 605.723 387.273 603.814Z" fill="#102465"/>
<path d="M376.022 635.116L414.195 619.465L415.401 627.1L376.022 635.116Z" fill="#102465"/>
<path d="M387.272 603.814C405.975 592.466 414.699 588.41 425.043 588.164C401.336 628.627 424.24 630.917 422.231 645.041C396.387 645.723 374.816 658.02 334.232 667.944C276.369 664.891 294.853 653.057 268.333 640.078C261.465 637.309 257.915 635.326 252.662 630.154C258.478 619.716 263.028 617.561 272.753 618.702C284.004 614.884 281.593 605.723 287.62 597.707C305.999 598.739 316.986 600.233 340.661 608.395C349.2 610.156 354.083 610.113 363.163 607.632C372.779 604.815 382.852 605.723 387.272 603.814Z" stroke="black" stroke-width="2" stroke-linejoin="round"/>
<path d="M344.592 578.874C343.665 593.616 333.228 604.823 303.113 628.221C323.273 622.709 342.653 612.164 351.182 603.916C362.496 592.974 372.502 585.68 382.581 585.135C389.884 584.74 394.376 584.017 405.452 578.874C414.941 573.54 420.39 570.782 430.65 566.722C430.65 566.722 434.914 562.671 432.782 545.731C430.65 528.791 434.914 524.74 434.914 524.74C427.372 531.915 423.593 537.302 417.47 548.677C407.391 565.617 363.199 567.458 344.592 578.874Z" fill="#143391" stroke="black" stroke-width="2" stroke-linejoin="round"/>
<path d="M420.182 548.308C417.325 551.977 415.648 553.749 412.429 556.042L415.143 559.725L420.182 548.308Z" fill="#102465"/>
<path d="M398.786 461.144L420.815 404.324C422.414 400.201 427.388 398.575 431.113 400.958L465.064 422.672V424.696L475.219 430.771L477.357 429.759L509.579 451.027C511.398 452.228 512.229 454.469 511.634 456.566L495.53 513.283L519.168 557.104C519.63 557.961 518.72 558.906 517.847 558.476L407.781 504.389C407.502 504.252 407.302 503.992 407.241 503.687L398.786 461.144Z" fill="#E2E2E2"/>
<path d="M398.786 461.144L420.815 404.324C422.414 400.201 427.388 398.575 431.113 400.958L465.064 422.672V424.696L475.219 430.771L477.357 429.759L509.579 451.027C511.398 452.228 512.229 454.469 511.634 456.566L495.53 513.283M398.786 461.144L495.53 513.283M398.786 461.144L407.241 503.687C407.302 503.992 407.502 504.252 407.781 504.389L517.847 558.476C518.72 558.906 519.63 557.961 519.168 557.104L495.53 513.283" stroke="black" stroke-width="2"/>
<path d="M399.94 462.19L495.768 514.357L519.179 558.196C519.638 559.055 518.724 559.996 517.853 559.563L408.853 505.459C408.574 505.321 408.376 505.061 408.316 504.757L399.94 462.19Z" fill="#353430"/>
<path d="M401.371 464.335L409.38 503.86L518.077 558.207M399.94 462.19L495.768 514.357L519.179 558.196C519.638 559.055 518.724 559.996 517.853 559.563L408.853 505.459C408.574 505.321 408.376 505.061 408.316 504.757L399.94 462.19Z" stroke="black" stroke-width="2"/>
<path d="M493.216 516.783L407.737 470.969L414.379 500.049L510.543 549.43L493.216 516.783Z" fill="#D9D9D9" stroke="black" stroke-width="2"/>
<path d="M456.775 428.14C457.218 426.951 458.643 426.47 459.716 427.148L477.08 438.111C477.871 438.611 478.21 439.591 477.897 440.473L474.135 451.048C473.716 452.226 472.33 452.735 471.247 452.108L453.458 441.795C452.614 441.306 452.247 440.28 452.587 439.366L456.775 428.14Z" fill="#989898" stroke="black" stroke-width="2"/>
<path d="M494.4 469.428L428.646 431.517C427.081 430.615 425.08 431.29 424.381 432.954L413.707 458.373C413.106 459.803 413.694 461.454 415.063 462.183L484.902 499.37C486.607 500.278 488.713 499.362 489.21 497.496L495.8 472.8C496.15 471.489 495.576 470.106 494.4 469.428Z" fill="#A5A7A6" stroke="black" stroke-width="2"/>
<path d="M31.6821 261.406L31.6872 261.423L31.6929 261.441L34.8895 271.057L23.8184 273.871L12.1725 276.831L9.1969 274.575L24.6271 247.613L28.8114 251.588L31.6821 261.406Z" fill="#BB9310" stroke="black" stroke-width="2"/>
<path d="M2 253.288L12.9015 250.209L23.8029 247.13L27.0439 257.486L30.2849 267.843L19.3834 270.922L8.48196 274L5.24098 263.644L2 253.288Z" fill="#F8C20A"/>
<path d="M12.9015 250.209L2 253.288L5.24098 263.644M12.9015 250.209L23.8029 247.13L27.0439 257.486M12.9015 250.209L19.3834 270.922M19.3834 270.922L30.2849 267.843L27.0439 257.486M19.3834 270.922L8.48196 274L5.24098 263.644M27.0439 257.486L5.24098 263.644" stroke="black" stroke-width="2"/>
<path d="M70.1435 147.114L63.0728 159.022L51.769 152.46L58.3629 141.125L64.9567 129.79L76.8885 135.755L87.5642 141.125L80.6564 152.46L70.1435 147.114Z" fill="#2F8638"/>
<path d="M76.8885 135.755L63.0728 159.022L51.769 152.46L58.3629 141.125M76.8885 135.755L64.9567 129.79L58.3629 141.125M76.8885 135.755L87.5642 141.125L80.6564 152.46L58.3629 141.125" stroke="black" stroke-width="2"/>
<path d="M66.3744 145.325L59.3037 157.232L48 150.67L54.5938 139.335L61.1877 128L73.1194 133.966L83.7952 139.335L76.8873 150.67L66.3744 145.325Z" fill="#75DA7F"/>
<path d="M73.1194 133.966L59.3037 157.232L48 150.67L54.5938 139.335M73.1194 133.966L61.1877 128L54.5938 139.335M73.1194 133.966L83.7952 139.335L76.8873 150.67L54.5938 139.335" stroke="black" stroke-width="2"/>
<path d="M155.897 182.626L146.637 175.66C130.925 180.592 118.197 180.726 101 176.294L157.22 145.266C177.358 146.969 187.634 147.35 198.888 144L206.164 149.066C211.383 161.957 219.719 168.678 233.943 180.726L186.322 218.719C170.552 205.689 158.012 199.397 155.897 182.626Z" fill="#FC034D"/>
<path d="M146.637 175.66L155.897 182.626M146.637 175.66C130.925 180.592 118.197 180.726 101 176.294L157.22 145.266C177.358 146.969 187.634 147.35 198.888 144M146.637 175.66L155.897 170.595M155.897 182.626C158.012 199.397 170.552 205.689 186.322 218.719L233.943 180.726C219.719 168.678 211.383 161.957 206.164 149.066M155.897 182.626L206.164 149.066M198.888 144L206.164 149.066M198.888 144L176.401 157.931" stroke="black" stroke-width="2"/>
<path d="M101.695 177.723L106.334 185.312H115.61L107.659 191.005C128.108 190.408 137.498 187.949 150.067 178.987C148.296 197.098 150.405 206.321 158.019 221.364L165.015 219.466M160.007 199.859C166.539 207.355 171.021 211.44 177.972 216.936M184.524 216.936L181.211 219.466C180.068 218.582 178.993 217.744 177.972 216.936M177.972 216.936L172.596 220.731C172.166 220.301 171.748 219.88 171.342 219.466M156.693 197.329C160.541 206.953 164.008 211.993 171.342 219.466M171.342 219.466L165.97 220.731C165.643 220.302 165.325 219.88 165.015 219.466M153.38 194.167C154.968 203.632 157.436 209.331 165.015 219.466" stroke="black" stroke-width="2"/>
<path d="M147.286 317.134L134.862 331.056L128.285 325.78L126.185 324.095L120.978 319.918L132.67 306.692C142.901 297.644 153.863 310.869 147.286 317.134Z" fill="#342C21"/>
<path d="M126.185 324.095L120.978 319.918L132.67 306.692C142.901 297.644 153.863 310.869 147.286 317.134L134.862 331.056L128.285 325.78M126.185 324.095L134.862 315.046L137.055 317.134L128.285 325.78M126.185 324.095L128.285 325.78" stroke="black" stroke-width="2"/>
<path d="M145.344 342.676L92.8613 340.576C91.0837 340.504 90.1049 342.615 91.3077 343.926L112.57 367.097C112.934 367.494 113.444 367.728 113.983 367.744L165.917 369.32C167.685 369.373 168.647 367.275 167.454 365.971L146.739 343.325C146.379 342.931 145.877 342.698 145.344 342.676Z" fill="#1C1C1C" stroke="black" stroke-width="2"/>
<path d="M202.1 359.039C197.955 379.113 176.478 388.018 132.419 403.2C95.3645 415.969 84.8562 440.527 143.48 452.619C176.106 463.659 169.096 484.575 126.336 508.872C-29.6202 579.32 95.8061 684.228 185.954 579.607" stroke="black" stroke-width="2"/>
<path d="M508.149 120.307C515.589 130.221 519.897 132.763 519.621 115.818L508.149 120.307Z" fill="#ACB6D3"/>
<path d="M531.421 109.995C529.689 127.607 541.465 120.948 541.667 103.264L531.421 109.995Z" fill="#ACB6D3"/>
<path d="M463.362 124.154C477.682 144.217 479.202 134.424 474.627 124.122L463.362 124.154Z" fill="#ACB6D3"/>
<path d="M508.149 120.307C515.589 130.221 519.897 132.763 519.621 115.818L508.149 120.307Z" stroke="black" stroke-width="2"/>
<path d="M531.421 109.995C529.689 127.607 541.465 120.948 541.667 103.264L531.421 109.995Z" stroke="black" stroke-width="2"/>
<path d="M463.362 124.154C477.682 144.217 479.202 134.424 474.627 124.122L463.362 124.154Z" stroke="black" stroke-width="2"/>
<path d="M450.723 121.348C444.984 116.979 439.656 90.4693 443.507 82.0377L455.635 74.8806L467.107 70.3919C498.886 59.9634 531.43 54.5595 539.77 64.0089C548.645 77.2571 551.971 91.4809 547.043 98.2665C535.239 108.597 527.882 112.52 514.274 118.289C501.697 123.658 461.601 127.702 450.723 121.348Z" fill="#ECEFFC"/>
<path d="M452.711 84.3622C473.334 81.3712 497.348 79.9188 500.128 83.0686C502.908 86.2183 508.678 106.32 506.861 109.89M506.861 109.89C505.044 113.46 460.94 117.144 456.278 114.42C451.616 111.697 447.662 88.0256 448.946 85.215M506.861 109.89C506.482 112.324 505.856 113.602 503.666 115.653C481.52 121.218 455.635 121.348 453.44 116.323C448.103 105.174 446.728 98.2512 445.659 85.3297C446.807 84.7415 447.506 84.6363 448.797 84.619M539.77 64.0089C548.645 77.2571 551.971 91.4809 547.043 98.2665C535.239 108.597 527.882 112.52 514.274 118.289C501.697 123.658 461.601 127.702 450.723 121.348C444.984 116.979 439.656 90.4693 443.507 82.0377L455.635 74.8806L467.107 70.3919C498.886 59.9634 531.43 54.5595 539.77 64.0089ZM539.77 64.0089L506.402 81.6473" stroke="black" stroke-width="2"/>
<path d="M487.111 91.0134L490.844 90.4384L487.992 98.0431L493.228 104.402L489.495 104.977L486.675 101.553L485.139 105.648L481.406 106.223L484.259 98.6181L479.023 92.2592L482.756 91.6842L485.575 95.1082L487.111 91.0134Z" fill="#E82338" stroke="black" stroke-width="2"/>
<path d="M461.307 94.1586L463.886 93.7614L462.151 100.398L466.004 106.173L463.426 106.571L461.351 103.461L460.417 107.034L457.838 107.431L459.573 100.795L455.72 95.0192L458.298 94.622L460.373 97.732L461.307 94.1586Z" fill="#E82338" stroke="black" stroke-width="2"/>
<path d="M496.181 72.6247C483.345 65.1102 499.182 29.1098 506.682 29.9306C511.907 29.6119 512.146 30.5643 513.461 35.8045L513.496 35.9456C515.359 51.577 514.899 59.3456 510.283 70.6895C509.43 71.077 508.636 71.4145 507.885 71.7048C506.909 78.3827 497.342 77.9568 496.181 72.6247Z" fill="#ACB6D3"/>
<path d="M444.506 35.8274C455.977 42.0389 461.473 46.5188 468.507 57.4766C472.248 63.4586 473.575 67.1943 470.531 70.8236C473.594 77.7418 462.928 80.1581 460.309 75.0056C446.807 74.669 441.142 60.497 438.232 37.2488C440.421 35.657 441.701 34.9698 444.506 35.8274Z" fill="#ACB6D3"/>
<path d="M496.181 72.6247C483.345 65.1102 499.182 29.1098 506.682 29.9306C511.953 29.609 512.15 30.5814 513.496 35.9456C515.359 51.577 514.899 59.3456 510.283 70.6895C509.43 71.077 508.636 71.4145 507.885 71.7048M496.181 72.6247C499.781 73.3136 502.357 73.3753 505.439 72.5246M496.181 72.6247C497.342 77.9568 506.909 78.3827 507.885 71.7048M466.123 74.3947C460.362 58.3541 454.912 50.3204 440.413 38.0142M466.123 74.3947C464.038 74.8505 462.104 75.0504 460.309 75.0056M466.123 74.3947C468.097 73.1668 469.544 72.0008 470.531 70.8236M507.43 32.9103C510.45 47.7228 510.16 56.3712 505.439 72.5246M505.439 72.5246C506.214 72.3106 507.022 72.0388 507.885 71.7048M460.309 75.0056C446.807 74.669 441.142 60.497 438.232 37.2488C440.421 35.657 441.701 34.9698 444.506 35.8274C455.977 42.0389 461.473 46.5188 468.507 57.4766C472.248 63.4586 473.575 67.1943 470.531 70.8236M460.309 75.0056C462.928 80.1581 473.594 77.7418 470.531 70.8236" stroke="black" stroke-width="2"/>
<path d="M540.855 18.6555L539.492 43.9142L543.645 44.878L549.4 20.2175L540.855 18.6555Z" fill="#E82338"/>
<path d="M538.064 50.5273L542.397 51.7015L543.145 47.3136L538.936 46.3446L538.064 50.5273Z" fill="#E82338"/>
<path d="M540.855 18.6555L539.492 43.9142L543.645 44.878L549.4 20.2175L540.855 18.6555Z" stroke="black" stroke-width="2"/>
<path d="M538.064 50.5273L542.397 51.7015L543.145 47.3136L538.936 46.3446L538.064 50.5273Z" stroke="black" stroke-width="2"/>
<path d="M202.643 573.291L194.953 573.291L193.98 576.142L195.428 581.618L197.264 582.727L205.605 582.727L206.602 581.618L205.007 575.528L202.643 573.291Z" fill="#202020" stroke="black" stroke-width="2"/>
<path d="M178.445 549.979L179.837 555.74M186.531 583.448L184.609 575.492M183.018 568.908L181.228 561.501" stroke="black" stroke-width="2"/>
</svg>
