<svg width="778" height="484" viewBox="0 0 778 484" fill="none" xmlns="http://www.w3.org/2000/svg">
<path d="M775.896 76.7281V464.827C775.896 474.215 768.284 481.827 758.896 481.827H19.2158C9.82698 481.827 2.21582 474.215 2.21582 464.827V72.7281C2.21582 61.1301 11.6178 51.7281 23.2158 51.7281H147.843C157.061 51.7281 165.388 46.2247 169.002 37.7447L178.495 15.4667C181.795 7.72407 189.398 2.69922 197.814 2.69922H377.162C385.195 2.69922 392.524 7.28211 396.042 14.5044L407.873 38.7986C411.725 46.7088 419.753 51.7281 428.551 51.7281H750.896C764.703 51.7281 775.896 62.921 775.896 76.7281Z" fill="#C9D7FF" stroke="#0541FB" stroke-width="4"/>
</svg>
